<svg width="95" height="26" viewBox="0 0 95 26" fill="none" xmlns="http://www.w3.org/2000/svg">
<path d="M12.4725 25H0.38V0.499998H12.0175C14.5492 0.499998 16.6258 0.954999 18.2475 1.865C20.1492 2.92667 21.1 4.53083 21.1 6.6775C21.1 8.17083 20.7033 9.34917 19.91 10.2125C19.1167 11.0758 18.1017 11.6708 16.865 11.9975C18.5917 12.4408 19.8633 13.2225 20.68 14.3425C21.4967 15.4625 21.905 16.7458 21.905 18.1925C21.905 19.7325 21.4792 21.01 20.6275 22.025C19.7875 23.0283 18.6558 23.775 17.2325 24.265C15.8092 24.755 14.2225 25 12.4725 25ZM11.6675 10.2475C12.4725 10.2475 13.1492 10.0492 13.6975 9.6525C14.2575 9.25583 14.5375 8.6375 14.5375 7.7975C14.5375 6.33917 13.5808 5.575 11.6675 5.505H6.7675V10.2475H11.6675ZM11.6675 20.03C12.6708 20.03 13.5283 19.8258 14.24 19.4175C14.9517 19.0092 15.3075 18.3325 15.3075 17.3875C15.3075 16.6642 15.0217 16.0692 14.45 15.6025C13.8783 15.1358 12.9508 14.9025 11.6675 14.9025H6.7675V20.03H11.6675ZM42.1645 25H25.3995V0.499998H31.787V19.54H42.1645V25ZM56.4861 25.455C52.7061 25.455 49.5503 24.2533 47.0186 21.85C44.4986 19.435 43.2386 16.3842 43.2386 12.6975C43.2386 9.08083 44.4869 6.0825 46.9836 3.7025C49.4919 1.31083 52.6594 0.114999 56.4861 0.114999C60.3011 0.114999 63.4628 1.31083 65.9711 3.7025C68.4794 6.0825 69.7336 9.08083 69.7336 12.6975C69.7336 16.3842 68.4794 19.435 65.9711 21.85C63.4628 24.2533 60.3011 25.455 56.4861 25.455ZM56.5561 19.995C58.3528 19.995 59.8986 19.3417 61.1936 18.035C62.5003 16.7167 63.1536 14.9492 63.1536 12.7325C63.1536 11.1575 62.8386 9.83917 62.2086 8.7775C61.5319 7.68083 60.6978 6.87 59.7061 6.345C58.7144 5.80833 57.6644 5.54 56.5561 5.54C54.7828 5.54 53.2136 6.205 51.8486 7.535C50.4836 8.85333 49.8011 10.5858 49.8011 12.7325C49.8011 13.7592 49.9528 14.6808 50.2561 15.4975C50.5594 16.3142 50.9736 17.0258 51.4986 17.6325C52.0236 18.2275 52.6128 18.7117 53.2661 19.085C54.2928 19.6917 55.3894 19.995 56.5561 19.995ZM84.4418 25.28C81.8401 25.28 79.5593 24.7317 77.5993 23.635C75.6393 22.5267 74.1051 21.0333 72.9968 19.155C71.8885 17.265 71.3343 15.1358 71.3343 12.7675C71.3343 9.1975 72.6176 6.23417 75.1843 3.8775C77.7626 1.50917 80.9885 0.324998 84.8618 0.324998C88.7001 0.324998 92.0543 1.53833 94.9243 3.965L91.2843 8.4275C89.2193 6.6425 87.0668 5.75 84.8268 5.75C82.8435 5.75 81.1926 6.40917 79.8743 7.7275C78.556 9.03417 77.8968 10.7142 77.8968 12.7675C77.8968 14.8208 78.5676 16.5125 79.9093 17.8425C81.251 19.1608 82.9135 19.82 84.8968 19.82C86.1335 19.82 87.5568 19.4408 89.1668 18.6825V15.5675H84.5118V10.9825H94.6093L94.6443 22.13C93.361 23.0167 91.8385 23.7633 90.0768 24.37C88.3268 24.9767 86.4485 25.28 84.4418 25.28Z" fill="#19474E"/>
</svg>
