<svg width="30" height="30" viewBox="0 0 30 30" fill="none" xmlns="http://www.w3.org/2000/svg">
<circle opacity="0.1" cx="15.168" cy="14.832" r="14.832" fill="white"/>
<path d="M15.4983 20.0901L12.4381 20.0329C11.4473 20.013 10.454 20.0528 9.48262 19.8463C8.0049 19.5378 7.90021 18.0252 7.79067 16.7564C7.63973 14.9726 7.69816 13.1564 7.98301 11.3875C8.14381 10.395 8.77663 9.80276 9.75528 9.73831C13.0589 9.50442 16.3845 9.53214 19.6808 9.64125C20.029 9.65126 20.3795 9.70593 20.7228 9.76817C22.4173 10.0717 22.4586 11.7858 22.5684 13.2288C22.678 14.6867 22.6317 16.152 22.4223 17.6C22.2544 18.7988 21.933 19.8042 20.5767 19.9013C18.8774 20.0282 17.217 20.1303 15.5129 20.0978C15.513 20.0901 15.5032 20.0901 15.4983 20.0901ZM13.6992 17.0549C14.9798 16.3035 16.236 15.5647 17.5093 14.8183C16.2263 14.0669 14.9725 13.3281 13.6992 12.5817V17.0549Z" fill="white"/>
</svg>
