<svg width="31" height="30" viewBox="0 0 31 30" fill="none" xmlns="http://www.w3.org/2000/svg">
<circle opacity="0.1" cx="15.6797" cy="14.832" r="14.832" fill="white"/>
<path d="M18.123 8.93938V8.93677H18.8044L19.0533 8.98649C19.2193 9.01877 19.37 9.06108 19.5054 9.11342C19.6408 9.16576 19.7718 9.22682 19.8985 9.29661C20.0251 9.36639 20.14 9.43749 20.2431 9.50989C20.3453 9.58143 20.437 9.65732 20.5183 9.73758C20.5986 9.8187 20.724 9.83964 20.8943 9.80038C21.0647 9.76113 21.2481 9.7066 21.4446 9.63682C21.6412 9.56704 21.8356 9.48853 22.0277 9.40129C22.2199 9.31405 22.337 9.25866 22.3789 9.23511C22.42 9.21069 22.4418 9.19761 22.4444 9.19585L22.447 9.19193L22.4601 9.18538L22.4732 9.17884L22.4864 9.1723L22.4995 9.16576L22.5021 9.16183L22.506 9.15921L22.51 9.1566L22.5126 9.15267L22.5257 9.14875L22.5388 9.14613L22.5362 9.16576L22.5322 9.18538L22.5257 9.20501L22.5191 9.22464L22.5126 9.23772L22.506 9.25081L22.4995 9.27044C22.4951 9.28352 22.4907 9.30097 22.4864 9.32278C22.482 9.34459 22.4405 9.43182 22.3619 9.58448C22.2833 9.73714 22.185 9.89198 22.067 10.049C21.9491 10.206 21.8434 10.3247 21.75 10.4049C21.6556 10.486 21.5932 10.5427 21.5626 10.575C21.532 10.6082 21.4949 10.6387 21.4512 10.6666L21.3857 10.7098L21.3726 10.7163L21.3595 10.7229L21.3569 10.7268L21.3529 10.7294L21.349 10.732L21.3464 10.736L21.3333 10.7425L21.3202 10.7491L21.3176 10.753L21.3136 10.7556L21.3097 10.7582L21.3071 10.7621L21.3045 10.7661L21.3005 10.7687L21.2966 10.7713L21.294 10.7752H21.3595L21.7264 10.6967C21.971 10.6444 22.2046 10.5811 22.4274 10.507L22.7812 10.3892L22.8205 10.3761L22.8401 10.3696L22.8532 10.363L22.8663 10.3565L22.8794 10.35L22.8926 10.3434L22.9188 10.3395L22.945 10.3369V10.363L22.9384 10.3657L22.9319 10.3696L22.9293 10.3735L22.9253 10.3761L22.9214 10.3787L22.9188 10.3827L22.9161 10.3866L22.9122 10.3892L22.9083 10.3918L22.9057 10.3958L22.903 10.3997L22.8991 10.4023L22.8926 10.4154L22.886 10.4285L22.8821 10.4311C22.8803 10.4337 22.8249 10.5078 22.7157 10.6535C22.6065 10.8001 22.5475 10.8742 22.5388 10.876C22.53 10.8786 22.5178 10.8917 22.5021 10.9152C22.4872 10.9397 22.3946 11.0369 22.2243 11.207C22.0539 11.3771 21.8871 11.5285 21.7238 11.6611C21.5595 11.7946 21.4765 11.9585 21.4748 12.1531C21.4722 12.3467 21.4621 12.5657 21.4446 12.81C21.4272 13.0542 21.3944 13.3181 21.3464 13.6016C21.2983 13.8851 21.2241 14.2057 21.1236 14.5634C21.0232 14.921 20.9009 15.27 20.7567 15.6102C20.6126 15.9504 20.4619 16.2557 20.3047 16.5261C20.1474 16.7966 20.0033 17.0255 19.8723 17.2131C19.7412 17.4006 19.608 17.5773 19.4726 17.743C19.3372 17.9088 19.166 18.0955 18.959 18.3031C18.7511 18.5098 18.6375 18.6232 18.6183 18.6433C18.5982 18.6625 18.5126 18.734 18.3615 18.8579C18.2112 18.9826 18.0496 19.1074 17.8766 19.2321C17.7046 19.356 17.5464 19.4594 17.4023 19.5422C17.2582 19.6251 17.0843 19.7197 16.8808 19.8262C16.6781 19.9335 16.4589 20.0329 16.223 20.1245C15.9872 20.2161 15.7382 20.3012 15.4761 20.3797C15.2141 20.4582 14.9608 20.5193 14.7162 20.5629C14.4716 20.6065 14.1942 20.6436 13.8841 20.6741L13.4189 20.7199V20.7264H12.5672V20.7199L12.4559 20.7134C12.3816 20.709 12.3205 20.7046 12.2724 20.7003C12.2244 20.6959 12.0431 20.6719 11.7286 20.6283C11.4141 20.5847 11.1674 20.5411 10.9883 20.4974C10.8092 20.4538 10.5428 20.371 10.189 20.2488C9.83521 20.1267 9.53253 20.0033 9.28095 19.8785C9.03024 19.7546 8.873 19.6761 8.80923 19.643C8.74633 19.6107 8.67558 19.5706 8.59696 19.5226L8.47903 19.4506L8.47642 19.4467L8.47248 19.4441L8.46855 19.4415L8.46593 19.4376L8.45282 19.431L8.43972 19.4245L8.43711 19.4205L8.43317 19.4179L8.42924 19.4153L8.42662 19.4114L8.42401 19.4075L8.42006 19.4048H8.41351V19.3787L8.42662 19.3813L8.43972 19.3852L8.49868 19.3918C8.53799 19.3961 8.64501 19.4027 8.81971 19.4114C8.99443 19.4201 9.18005 19.4201 9.3766 19.4114C9.57315 19.4027 9.77407 19.383 9.97935 19.3525C10.1846 19.322 10.427 19.2696 10.7066 19.1955C10.9861 19.1213 11.2429 19.0332 11.4771 18.9312C11.7103 18.8282 11.8763 18.7515 11.975 18.7009C12.0728 18.6511 12.2222 18.5587 12.4231 18.4235L12.7245 18.2206L12.7271 18.2167L12.731 18.2141L12.735 18.2115L12.7376 18.2076L12.7402 18.2036L12.7441 18.201L12.7481 18.1984L12.7507 18.1945L12.7638 18.1905L12.7769 18.1879L12.7795 18.1748L12.7834 18.1618L12.7874 18.1591L12.79 18.1552L12.6852 18.1487C12.6153 18.1443 12.5476 18.1399 12.4821 18.1356C12.4165 18.1312 12.3139 18.1116 12.1741 18.0767C12.0344 18.0418 11.8837 17.9895 11.7221 17.9197C11.5605 17.8499 11.4032 17.767 11.2504 17.6711C11.0975 17.5751 10.987 17.4953 10.9188 17.4316C10.8516 17.3688 10.7642 17.2798 10.6568 17.1647C10.5502 17.0487 10.4576 16.9296 10.379 16.8075C10.3004 16.6853 10.2253 16.5444 10.1536 16.3848L10.0449 16.1467L10.0383 16.127L10.0318 16.1074L10.0278 16.0943L10.0252 16.0812L10.0449 16.0838L10.0645 16.0878L10.2087 16.1074C10.3048 16.1205 10.4554 16.1248 10.6607 16.1205C10.866 16.1161 11.0079 16.1074 11.0866 16.0943C11.1652 16.0812 11.2132 16.0725 11.2307 16.0681L11.2569 16.0616L11.2897 16.0551L11.3224 16.0485L11.325 16.0446L11.329 16.042L11.3329 16.0394L11.3355 16.0354L11.3093 16.0289L11.2831 16.0223L11.2569 16.0158L11.2307 16.0093L11.2045 16.0027C11.187 15.9984 11.1565 15.9896 11.1128 15.9765C11.0691 15.9635 10.9512 15.9155 10.759 15.8326C10.5668 15.7497 10.4139 15.669 10.3004 15.5905C10.1865 15.5118 10.078 15.4257 9.97541 15.3328C9.87321 15.2385 9.76097 15.1173 9.63866 14.969C9.51637 14.8207 9.40718 14.6484 9.31108 14.4521C9.215 14.2559 9.14293 14.0683 9.09488 13.8895C9.04702 13.7117 9.01545 13.5299 9.00055 13.3464L8.97695 13.0717L8.99005 13.0743L9.00316 13.0782L9.01626 13.0847L9.02936 13.0913L9.04247 13.0978L9.05557 13.1044L9.25867 13.196C9.39408 13.257 9.56223 13.3094 9.76314 13.353C9.96407 13.3966 10.0842 13.4206 10.1235 13.425L10.1824 13.4315H10.3004L10.2978 13.4276L10.2938 13.425L10.2899 13.4223L10.2873 13.4184L10.2847 13.4145L10.2807 13.4119L10.2768 13.4093L10.2742 13.4053L10.2611 13.3988L10.248 13.3922L10.2454 13.3883L10.2414 13.3857L10.2375 13.3831L10.2349 13.3792L10.2218 13.3726L10.2087 13.3661L10.206 13.3621C10.2034 13.3604 10.1659 13.3325 10.0933 13.2784C10.0217 13.2234 9.94659 13.1524 9.86797 13.0651C9.78935 12.9779 9.71073 12.8863 9.63211 12.7903C9.55335 12.6942 9.48319 12.5913 9.42246 12.4828C9.36132 12.3738 9.29667 12.2351 9.22853 12.0667C9.16127 11.8992 9.11017 11.7304 9.07522 11.5603C9.04029 11.3902 9.02064 11.2223 9.01626 11.0566C9.0119 10.8908 9.01626 10.7491 9.02936 10.6313C9.04247 10.5135 9.06867 10.3805 9.10798 10.2322C9.14729 10.0839 9.20408 9.92688 9.27832 9.76113L9.3897 9.51251L9.39625 9.49288L9.4028 9.47326L9.40675 9.47064L9.40936 9.46671L9.41198 9.46279L9.41591 9.46017L9.41985 9.46279L9.42246 9.46671L9.42508 9.47064L9.42901 9.47326L9.43296 9.47587L9.43556 9.4798L9.43818 9.48372L9.44211 9.48634L9.44867 9.49943L9.45522 9.51251L9.45916 9.51513L9.46177 9.51905L9.63866 9.71533C9.75659 9.84618 9.89636 9.9923 10.058 10.1537C10.2196 10.3151 10.3091 10.3988 10.3266 10.4049C10.3441 10.4119 10.3659 10.4319 10.3921 10.4651C10.4183 10.4974 10.5057 10.5746 10.6542 10.6967C10.8027 10.8188 10.997 10.9606 11.2373 11.122C11.4775 11.2834 11.7439 11.4426 12.0365 11.5996C12.3292 11.7566 12.6437 11.8984 12.98 12.0248C13.3163 12.1513 13.5522 12.2342 13.6876 12.2735C13.823 12.3127 14.0544 12.3629 14.382 12.4239C14.7096 12.485 14.9564 12.5243 15.1224 12.5417C15.2883 12.5592 15.4019 12.5692 15.463 12.5718L15.5548 12.5744L15.5522 12.5548L15.5482 12.5352L15.522 12.3716C15.5045 12.2626 15.4958 12.1099 15.4958 11.9136C15.4958 11.7174 15.5111 11.5363 15.5417 11.3706C15.5722 11.2048 15.6181 11.0369 15.6792 10.8668C15.7404 10.6967 15.8002 10.5602 15.8588 10.4573C15.9182 10.3552 15.9959 10.2387 16.092 10.1079C16.1881 9.97703 16.3126 9.84182 16.4654 9.70225C16.6183 9.56267 16.793 9.43836 16.9896 9.32932C17.1861 9.22028 17.3674 9.1374 17.5333 9.0807C17.6993 9.02401 17.8391 8.98692 17.9526 8.96948C18.0662 8.95204 18.123 8.942 18.123 8.93938Z" fill="white"/>
</svg>
