<svg width="40" height="34" viewBox="0 0 40 34" fill="none" xmlns="http://www.w3.org/2000/svg">
<path d="M20.296 32.1051C20.2232 32.1802 20.136 32.2399 20.0397 32.2807C19.9434 32.3215 19.8399 32.3425 19.7353 32.3425C19.6307 32.3425 19.5272 32.3215 19.4308 32.2807C19.3345 32.2399 19.2474 32.1802 19.1746 32.1051L4.42904 16.9207C3.0868 15.604 2.19858 13.8941 1.89306 12.0388C1.58755 10.1835 1.88059 8.27911 2.72974 6.60149C3.38453 5.33038 4.32898 4.23102 5.48686 3.39212C6.64475 2.55322 7.98364 1.99828 9.39549 1.7721C10.8073 1.54591 12.2526 1.65481 13.6146 2.09C14.9766 2.5252 16.2172 3.2745 17.2363 4.27744L19.7353 6.55619L22.2343 4.27744C23.2532 3.2745 24.4937 2.52519 25.8556 2.08999C27.2175 1.65479 28.6626 1.54589 30.0744 1.77208C31.4861 1.99827 32.8249 2.55322 33.9826 3.39213C35.1404 4.23104 36.0847 5.33041 36.7393 6.60149C37.5881 8.27906 37.8812 10.1832 37.5759 12.0384C37.2707 13.8936 36.3831 15.6035 35.0415 16.9207L20.296 32.1051Z" stroke="#41C67E" stroke-width="2.76757" stroke-linecap="round" stroke-linejoin="round"/>
</svg>
