<svg width="122" height="67" viewBox="0 0 122 67" fill="none" xmlns="http://www.w3.org/2000/svg">
<path d="M68.4576 37.0495C67.7301 35.8772 67.0505 34.7723 66.3586 33.6735C66.1577 33.3546 65.9627 33.018 65.6984 32.7581C65.2332 32.3004 65.274 31.8644 65.5077 31.2928C66.5128 28.8333 67.7556 26.5085 69.2055 24.2945C69.3647 24.051 69.5259 23.8098 69.6903 23.5612C67.1801 19.2874 64.2566 15.343 61.1607 11.5083C63.2321 12.6122 65.1597 13.9357 66.9158 15.4879C68.677 17.0445 70.3555 18.6971 72.0504 20.2888C73.6127 18.5884 75.228 16.8301 76.8432 15.0717C76.8871 15.1048 76.932 15.1379 76.9759 15.171C76.8657 15.3719 76.7494 15.5687 76.6453 15.7728C75.6331 17.7414 74.628 19.7131 73.6075 21.6765C73.4504 21.9788 73.4811 22.1829 73.6963 22.4542C75.7586 25.0473 77.6248 27.7729 79.033 30.7967C79.3626 31.504 79.3535 31.5092 78.7208 31.971C77.4821 32.8752 76.2433 33.7771 74.9372 34.7288C73.9667 31.999 72.8647 29.3883 71.4831 26.7984C70.2025 30.1826 69.2281 33.5566 68.4576 37.0474V37.0495Z" fill="#FDFAF5"/>
<path d="M79.683 29.7757C78.5443 27.9769 77.428 26.2113 76.3096 24.4487C76.181 24.2457 76.0616 24.0252 75.8902 23.8646C75.3229 23.3365 75.4004 22.795 75.6626 22.1166C77.683 16.886 80.5759 12.1845 84.0034 7.80097C86.0656 5.16442 88.3105 2.69564 90.6951 0.357328C90.8289 0.226848 90.9676 0.10258 91.1513 -0.000976562C85.8156 9.33982 81.8993 19.2377 79.6821 29.7746L79.683 29.7757Z" fill="#FDFAF5"/>
<path d="M54.5047 23.8026C57.6618 25.5217 60.32 27.833 62.6353 30.4396C63.4219 29.7208 64.1974 29.0105 65.0566 28.2265C64.827 28.6583 64.6392 29.0062 64.4546 29.3563C64.174 29.8876 63.9199 30.4353 63.6087 30.9469C63.4006 31.2907 63.5291 31.501 63.7392 31.7609C65.275 33.6559 66.6474 35.6618 67.7331 37.8603C68.1617 38.7282 68.1546 38.7303 67.3628 39.3039C66.5352 39.9035 65.7097 40.5063 64.8913 41.1017C63.9485 38.9663 63.0179 36.86 62.0873 34.7537C62.0261 34.7651 61.9648 34.7765 61.9047 34.7879C60.922 37.1396 60.2005 39.5814 59.5831 42.1445C59.4658 41.9705 59.3924 41.8649 59.322 41.7572C58.8343 41.0116 58.3914 40.2298 57.8444 39.5318C57.5138 39.1103 57.5221 38.7934 57.7219 38.3357C58.5169 36.5162 59.4954 34.8075 60.6546 33.2065C60.8608 32.9228 60.8649 32.7323 60.6863 32.4361C58.9363 29.5345 56.9403 26.814 54.8078 24.194C54.7036 24.0656 54.6057 23.933 54.5057 23.8015L54.5047 23.8026Z" fill="#FDFAF5"/>
<path d="M57.0578 45.2884C55.5658 41.0396 53.123 37.3674 50.3036 33.9263L50.4057 33.8247C51.0976 34.3073 51.8139 34.7588 52.4782 35.2787C55.2159 37.4233 57.4036 40.0423 59.02 43.152C59.2506 43.5953 59.2098 43.8407 58.7811 44.1047C58.2455 44.433 57.7536 44.8359 57.2424 45.2046C57.2016 45.2335 57.1505 45.247 57.0587 45.2884H57.0578Z" fill="#FDFAF5"/>
<path d="M122 62.5834C121.972 62.6456 121.928 62.7057 121.92 62.7709C121.639 64.9507 120.076 66.5663 117.475 66.9007C114.89 67.2331 112.568 66.5 110.503 64.9051C110.436 64.8534 110.369 64.8006 110.268 64.7208C110.896 63.6842 111.505 62.6798 112.083 61.726C112.916 62.1879 113.686 62.66 114.495 63.0484C115.222 63.3974 116.009 63.558 116.826 63.4398C117.542 63.3363 117.951 63.007 118.05 62.4613C118.156 61.8813 117.951 61.4557 117.287 61.0881C116.692 60.7598 116.056 60.5092 115.449 60.2027C114.645 59.7968 113.819 59.4218 113.059 58.9413C111.379 57.8809 110.757 56.282 111.01 54.3321C111.253 52.4566 112.29 51.1591 114.021 50.4974C116.265 49.6389 118.431 50.0428 120.523 51.0804C120.931 51.2824 121.313 51.5412 121.757 51.8043C121.179 52.8668 120.624 53.8836 120.052 54.9338C119.609 54.6873 119.206 54.444 118.786 54.2337C117.988 53.835 117.164 53.5047 116.252 53.573C115.971 53.5938 115.673 53.6599 115.427 53.7895C114.777 54.1301 114.648 54.9224 115.183 55.4298C115.511 55.7415 115.917 55.9827 116.32 56.1961C117.102 56.6103 117.914 56.9666 118.699 57.3756C120.307 58.2123 121.65 59.2924 122.002 61.2382V62.5825L122 62.5834Z" fill="#FDFAF5"/>
<path d="M109.603 50.3121C109.202 50.8174 108.858 51.2544 108.509 51.6872C107.262 53.2344 106.02 54.7867 104.759 56.3203C104.528 56.6021 104.511 56.8092 104.687 57.1291C106.242 59.9562 107.78 62.7926 109.323 65.627C109.444 65.8507 109.562 66.0765 109.713 66.3602C109.535 66.3839 109.412 66.4151 109.29 66.4151C107.931 66.4182 106.572 66.4057 105.212 66.4254C104.888 66.4306 104.733 66.3043 104.593 66.0287C103.649 64.1782 102.691 62.336 101.737 60.4905C101.659 60.3404 101.576 60.1923 101.461 59.9822C101.033 60.5351 100.623 61.0343 100.252 61.5624C100.157 61.697 100.163 61.9217 100.162 62.105C100.155 63.5145 100.158 64.9249 100.158 66.3757H95.8073V65.8134C95.8073 49.9454 95.8094 34.0786 95.7982 18.2106C95.7982 17.8119 95.9135 17.5934 96.2573 17.4018C97.387 16.769 98.4961 16.1001 99.6144 15.4467C99.7583 15.3627 99.9083 15.2892 100.149 15.1619V56.0055L100.258 56.0314C100.372 55.8916 100.488 55.7549 100.596 55.6111C101.826 53.9624 103.059 52.3169 104.276 50.6579C104.481 50.3782 104.697 50.2716 105.038 50.2768C106.38 50.2955 107.722 50.2841 109.064 50.2851C109.21 50.2851 109.356 50.2996 109.604 50.3121H109.603Z" fill="#FDFAF5"/>
<path d="M55.1484 57.6706C54.7954 58.991 54.4413 60.3114 54.0893 61.6317C53.6495 63.2762 53.2045 64.9186 52.7791 66.5672C52.7015 66.8686 52.5832 66.9897 52.2628 66.9835C51.2434 66.9639 50.224 66.97 49.2046 66.9805C48.9537 66.9825 48.7975 66.9307 48.727 66.6511C47.3924 61.4018 46.0496 56.1547 44.7108 50.9063C44.6986 50.8577 44.7047 50.8049 44.6996 50.7138H48.8781C49.5679 53.7781 50.2638 56.8702 50.9904 60.1012C51.0751 59.8278 51.1261 59.6879 51.1617 59.544C51.8699 56.7614 52.5883 53.9809 53.272 51.1911C53.3811 50.7459 53.5352 50.5646 54.0066 50.5885C54.8372 50.6299 55.6719 50.6236 56.5025 50.5894C56.9056 50.5729 57.0535 50.721 57.1484 51.1031C57.8556 53.9396 58.5852 56.7698 59.3076 59.602C59.3413 59.7346 59.3851 59.8629 59.4719 60.1508C59.6718 59.2954 59.8403 58.5851 60.0025 57.8736C60.5138 55.6264 61.0311 53.3813 61.5219 51.129C61.6005 50.7687 61.7372 50.6589 62.0944 50.6651C63.2973 50.6869 64.5014 50.6734 65.7647 50.6734C65.7269 50.8805 65.7075 51.043 65.6667 51.2004C64.3556 56.2602 63.0341 61.3179 61.7413 66.3829C61.6177 66.8655 61.4229 67.0063 60.9494 66.9866C60.0168 66.9473 59.0811 66.9566 58.1474 66.9846C57.7821 66.9949 57.6525 66.8561 57.5658 66.5155C56.8566 63.7328 56.1301 60.9545 55.4066 58.1761C55.3617 58.003 55.3015 57.8343 55.2475 57.6635L55.1474 57.6676L55.1484 57.6706Z" fill="#FDFAF5"/>
<path d="M29.2089 58.5053C29.164 61.1491 28.3712 63.4533 26.3437 65.2116C22.5509 68.5016 15.0325 67.4195 13.7438 60.4978C13.2897 58.059 13.552 55.6855 14.9152 53.5419C16.6457 50.8214 19.8753 49.5187 23.0917 50.2126C26.1997 50.8826 28.4855 53.3223 29.0089 56.5575C29.1131 57.2006 29.1437 57.856 29.2089 58.5063V58.5053ZM24.6314 58.7776C24.61 57.6096 24.4191 56.4828 23.7447 55.4949C22.4232 53.5615 19.7489 53.5615 18.4489 55.4918C17.2805 57.2275 17.3376 60.417 18.5682 62.107C20.0039 64.0798 22.7722 63.9048 23.9549 61.7684C24.4692 60.8395 24.6121 59.8257 24.6314 58.7776Z" fill="#FDFAF5"/>
<path d="M66.8728 58.7716C66.93 55.4888 67.9249 52.9309 70.5239 51.2503C74.7401 48.5236 81.6676 50.2914 82.4268 57.2555C82.6534 59.3328 82.4064 61.348 81.339 63.1945C79.7024 66.0246 76.5238 67.4692 73.2718 66.8635C69.981 66.2504 67.6014 63.8116 67.0534 60.4637C66.9483 59.8207 66.9136 59.1651 66.8728 58.7716ZM77.9533 58.8265C77.9381 57.6842 77.7615 56.6072 77.1625 55.64C75.8779 53.5658 73.0861 53.5027 71.7524 55.5168C70.5942 57.2669 70.6687 60.4492 71.9075 62.131C73.3381 64.0727 76.0871 63.8945 77.2656 61.7861C77.7839 60.8593 77.9298 59.8455 77.9524 58.8254L77.9533 58.8265Z" fill="#FDFAF5"/>
<path d="M42.4343 36.0088V66.9328H37.9741V66.3529C37.9741 57.2927 37.9783 48.2336 37.9629 39.1734C37.9629 38.7323 38.0997 38.4983 38.4731 38.2901C39.6334 37.6429 40.771 36.9553 41.9179 36.2853C42.0619 36.2013 42.2108 36.1279 42.4343 36.0088Z" fill="#FDFAF5"/>
<path d="M11.4387 51.8466C10.9244 52.7901 10.4336 53.693 9.94072 54.594C9.8846 54.6976 9.81929 54.7959 9.7397 54.9275C9.31419 54.6903 8.91113 54.4438 8.49074 54.2347C7.64584 53.8132 6.7734 53.4838 5.80504 53.5761C5.34484 53.6196 4.94076 53.7821 4.69689 54.2067C4.45404 54.6291 4.51322 55.1346 4.91934 55.467C5.31117 55.787 5.7581 56.0468 6.20402 56.2892C7.27952 56.8733 8.42033 57.3506 9.44379 58.0165C12.0325 59.7014 12.4785 63.1323 10.454 65.3245C9.59072 66.2596 8.48563 66.7339 7.26319 66.8913C4.62036 67.232 2.25609 66.5092 0.159169 64.8585C0.108149 64.8181 0.0693739 64.7601 0.00100708 64.6814C0.604063 63.6831 1.20508 62.689 1.8163 61.6782C2.35814 62.0221 2.8571 62.3752 3.38771 62.6662C4.37036 63.2047 5.39994 63.593 6.54993 63.4346C7.25095 63.3383 7.66013 62.9956 7.76828 62.4446C7.87339 61.9082 7.65707 61.4619 7.02543 61.1098C6.43258 60.7783 5.79892 60.5236 5.19179 60.2171C4.37342 59.8028 3.53057 59.4249 2.75711 58.935C1.11937 57.9005 0.482636 56.3409 0.702022 54.4283C0.919366 52.5311 1.93671 51.1973 3.68261 50.5149C5.97647 49.6191 8.18665 50.0499 10.3203 51.1248C10.6081 51.2699 10.8795 51.451 11.154 51.6208C11.2387 51.6727 11.3121 51.7441 11.4387 51.8456V51.8466Z" fill="#FDFAF5"/>
<path d="M89.3932 66.4004H85.2881V50.3596H89.3758V52.8118C89.4105 52.8376 89.4462 52.8624 89.4809 52.8884C90.2849 51.0989 91.4982 49.9484 93.584 50.0664V54.6695C93.3043 54.6934 93.0217 54.7057 92.7442 54.743C90.8472 54.9989 89.5891 56.3782 89.4859 58.5695C89.3738 60.9409 89.4177 63.3207 89.3942 65.6962C89.3921 65.9158 89.3942 66.1363 89.3942 66.4004H89.3932Z" fill="#FDFAF5"/>
<path d="M31.319 52.3333H35.715V66.943H31.319V52.3333Z" fill="#FDFAF5"/>
<path d="M35.7211 51.1736H31.3181V47.2603H35.7211V51.1736Z" fill="#FDFAF5"/>
</svg>
