<svg width="31" height="30" viewBox="0 0 31 30" fill="none" xmlns="http://www.w3.org/2000/svg">
<circle opacity="0.1" cx="15.6719" cy="14.832" r="14.832" fill="white"/>
<path d="M9.79321 10.5337C9.79321 10.1566 9.92562 9.84557 10.1904 9.60051C10.4552 9.35544 10.7995 9.23291 11.2232 9.23291C11.6393 9.23291 11.976 9.35355 12.2333 9.59486C12.4981 9.84369 12.6305 10.1679 12.6305 10.5676C12.6305 10.9295 12.5019 11.2311 12.2446 11.4725C11.9798 11.7213 11.6318 11.8457 11.2005 11.8457H11.1891C10.773 11.8457 10.4363 11.7213 10.1791 11.4725C9.92183 11.2236 9.79321 10.9107 9.79321 10.5337ZM9.94075 20.4306V12.875H12.4602V20.4306H9.94075ZM13.8562 20.4306H16.3756V16.2117C16.3756 15.9478 16.4059 15.7442 16.4664 15.6009C16.5724 15.3445 16.7331 15.1277 16.9488 14.9505C17.1644 14.7733 17.4349 14.6847 17.7602 14.6847C18.6076 14.6847 19.0313 15.254 19.0313 16.3927V20.4306H21.5508V16.0986C21.5508 14.9826 21.286 14.1361 20.7564 13.5593C20.2267 12.9824 19.5269 12.694 18.6568 12.694C17.6808 12.694 16.9204 13.1125 16.3756 13.9495V13.9721H16.3643L16.3756 13.9495V12.875H13.8562C13.8713 13.1163 13.8789 13.8666 13.8789 15.1258C13.8789 16.3851 13.8713 18.1534 13.8562 20.4306Z" fill="white"/>
</svg>
