<svg width="31" height="30" viewBox="0 0 31 30" fill="none" xmlns="http://www.w3.org/2000/svg">
<mask id="mask0_1_442" style="mask-type:alpha" maskUnits="userSpaceOnUse" x="0" y="0" width="31" height="30">
<circle cx="15.1758" cy="14.832" r="14.832" fill="#26385E"/>
</mask>
<g mask="url(#mask0_1_442)">
<circle opacity="0.1" cx="15.1758" cy="14.832" r="14.832" fill="white"/>
</g>
<path fill-rule="evenodd" clip-rule="evenodd" d="M8.5116 14.8318C8.5116 12.1697 8.5116 10.8386 9.14596 9.87988C9.42923 9.45176 9.79588 9.08512 10.224 8.80184C11.1827 8.16748 12.5138 8.16748 15.1759 8.16748C17.838 8.16748 19.1691 8.16748 20.1278 8.80184C20.556 9.08512 20.9226 9.45176 21.2059 9.87988C21.8402 10.8386 21.8402 12.1697 21.8402 14.8318C21.8402 17.4939 21.8402 18.825 21.2059 19.7837C20.9226 20.2118 20.556 20.5785 20.1278 20.8618C19.1691 21.4961 17.838 21.4961 15.1759 21.4961C12.5138 21.4961 11.1827 21.4961 10.224 20.8618C9.79588 20.5785 9.42923 20.2118 9.14596 19.7837C8.5116 18.825 8.5116 17.4939 8.5116 14.8318ZM18.6262 14.8323C18.6262 16.7378 17.0815 18.2825 15.176 18.2825C13.2705 18.2825 11.7258 16.7378 11.7258 14.8323C11.7258 12.9268 13.2705 11.3821 15.176 11.3821C17.0815 11.3821 18.6262 12.9268 18.6262 14.8323ZM15.176 17.1152C16.4368 17.1152 17.4589 16.0931 17.4589 14.8323C17.4589 13.5715 16.4368 12.5494 15.176 12.5494C13.9152 12.5494 12.8931 13.5715 12.8931 14.8323C12.8931 16.0931 13.9152 17.1152 15.176 17.1152ZM18.7616 12.0194C19.2094 12.0194 19.5723 11.6565 19.5723 11.2087C19.5723 10.761 19.2094 10.398 18.7616 10.398C18.3139 10.398 17.9509 10.761 17.9509 11.2087C17.9509 11.6565 18.3139 12.0194 18.7616 12.0194Z" fill="white"/>
</svg>
