<svg width="1728" height="539" viewBox="0 0 1728 539" fill="none" xmlns="http://www.w3.org/2000/svg">
<path d="M274.748 212.08C84.8799 208.385 34.8354 247.909 1.60206 261.189C0.0420271 261.812 -1 263.303 -1 264.983V534.923C-1 537.162 0.837882 538.965 3.0766 538.922L1933.08 501.942C1935.26 501.9 1937 500.122 1937 497.942V4.66254C1937 2.21097 1934.92 0.315277 1932.51 0.797162C1831.17 21.1146 1619.61 213.585 1524.65 249.245C1428.26 285.441 1247.31 -0.000554477 861.396 0C673.918 0.000269367 454.181 56.1263 277.514 211.079C276.761 211.74 275.749 212.099 274.748 212.08Z" fill="#41C67E"/>
</svg>
