<svg width="1722" height="479" viewBox="0 0 1722 479" fill="none" xmlns="http://www.w3.org/2000/svg">
<path d="M244.909 188.468C76.8574 185.223 32.136 220.085 2.60639 231.996C1.04833 232.625 0 234.117 0 235.798V474.922C0 477.161 1.83797 478.965 4.07668 478.922L1718.58 446.075C1720.76 446.033 1722.5 444.255 1722.5 442.076V4.66245C1722.5 2.2109 1720.41 0.317143 1718 0.811706C1627.73 19.4057 1440.24 189.868 1356 221.5C1270.33 253.667 1109.5 -0.000492754 766.5 0C599.916 0.000239315 404.675 49.8507 247.675 187.468C246.921 188.128 245.911 188.487 244.909 188.468Z" fill="#41C67E"/>
</svg>
