<svg width="190" height="115" viewBox="0 0 190 115" fill="none" xmlns="http://www.w3.org/2000/svg">
<path d="M159.46 0.745132C157.64 1.22788 155.412 1.93359 154.557 2.26704L152.96 2.89908L151.399 1.74747C150.137 0.818809 149.505 0.59584 147.907 0.59584C145.381 0.59584 144.639 1.26472 144.899 3.34499C145.009 4.19998 145.195 5.12863 145.308 5.4621C145.494 5.90801 145.122 6.16781 143.6 6.61372C138.363 8.24808 131.864 8.47103 124.175 7.24574C116.005 5.98362 108.762 5.90802 99.8479 7.05963C89.2623 8.36053 83.2096 8.76766 73.0699 8.76766C63.5991 8.76766 57.7693 8.39542 48.2229 7.24574C38.7153 6.09413 33.3663 5.79751 28.5757 6.20659C22.1507 6.72616 17.1371 8.28686 14.2018 10.7374C13.6066 11.2202 12.1972 12.0383 11.0824 12.5579C8.37395 13.7813 7.00131 15.0066 5.77409 17.271C3.8431 20.7627 3.65698 22.7693 3.65698 39.4445V54.7082L2.76515 55.5244C1.35374 56.8253 0.238965 59.906 0.0160093 62.8044C-0.133274 65.3674 0.795386 72.1627 1.39058 72.7579C1.91017 73.2775 5.43868 69.3787 6.70081 66.8157C7.73998 64.6986 7.96293 63.8068 8.07538 61.2069C8.18783 58.4578 8.07538 57.9013 7.18356 56.0808L6.18122 54.0374L6.36734 41.5209C6.55346 29.0043 6.99937 24.3998 8.15099 23.0252C8.74425 22.3195 9.22893 22.7286 9.22893 23.9539C9.22893 24.5491 9.63801 26.9996 10.1576 29.4871C11.7183 37.2498 12.3115 42.4127 12.3115 48.8745C12.3115 57.4166 11.4566 61.9843 8.70935 68.3725C8.18977 69.5978 7.74385 70.9355 7.74385 71.3814C7.74385 71.7905 8.26344 73.5354 8.85863 75.2066C11.2724 81.8177 14.132 93.1826 14.7641 98.8283C15.3961 104.175 15.5066 104.474 17.0673 106.292C18.5155 107.964 18.5155 108 18.4787 110.973C18.4419 112.607 18.5911 114.092 18.7753 114.278C18.9614 114.464 22.1177 114.575 26.0553 114.538L32.9631 114.427L31.478 111.271C30.2527 108.634 29.4733 107.63 26.8347 105.069C25.0898 103.361 23.4555 101.43 23.1569 100.724C22.4144 98.9407 21.7823 93.297 21.7086 87.8744C21.6718 83.7138 21.7455 83.0469 22.5636 81.2632L23.4555 79.2954L26.6117 84.6056C31.4392 92.7755 33.6319 97.1959 33.9286 99.4622C34.262 102.175 35.3768 104.365 37.1236 105.74C39.1671 107.374 39.834 108.749 39.5374 110.903C39.3881 111.868 39.4637 113.094 39.6866 113.65L40.0589 114.615H46.9298C51.6468 114.615 53.8007 114.503 53.8007 114.206C53.8007 113.983 53.0213 112.312 52.0558 110.455C50.311 107.039 49.7526 106.481 45.9643 104.216C44.6634 103.398 44.1826 102.731 42.4726 99.2025C39.0934 92.2191 37.0868 84.4951 37.0868 78.5529C37.0868 76.2865 37.1605 76.0654 37.9418 75.8425C39.7254 75.3597 40.3187 75.5827 40.6521 76.808C41.2842 78.9251 43.6242 78.4424 43.3257 76.2884C43.1764 75.2861 43.252 75.2124 44.5878 75.1C44.8476 75.0631 45.1442 75.4722 45.2567 75.9549C45.5165 77.0309 46.4083 77.663 47.2613 77.3664C47.6704 77.2171 47.8565 76.6975 47.8565 75.6951V74.2837L50.4195 73.4675C51.831 72.9848 53.9481 72.1298 55.0997 71.5734L57.2168 70.4954L59.3339 71.238C66.3541 73.6517 74.4872 75.2124 81.8408 75.509C86.6683 75.6952 88.3395 75.5827 94.4679 74.6928C102.118 73.578 105.684 73.578 108.842 74.6928L110.587 75.2861L110.81 77.7735C110.92 79.1481 111.292 81.1915 111.589 82.3043C111.922 83.4191 112.518 85.4975 112.927 86.9476C113.483 88.9911 113.706 91.2187 113.892 97.2346C114.152 104.848 114.152 104.924 115.117 105.963C116.715 107.671 117.048 108.563 116.752 110.717C116.641 111.793 116.641 113.094 116.789 113.65L117.012 114.615H123.287C128.078 114.615 129.565 114.503 129.565 114.133C129.565 112.981 127.225 108.97 125.108 106.446C122.471 103.289 121.393 101.356 121.393 99.8713C121.393 97.7542 124.142 84.1248 124.439 84.6812C124.625 84.9779 125.255 87.1338 125.887 89.435C126.742 92.6282 127.076 94.8577 127.262 98.7197L127.558 103.846L128.896 105.22C130.827 107.264 131.05 107.894 131.05 111.422V114.617H137.698H144.346L143.64 112.723C142.452 109.567 141.45 107.896 139.034 104.776C137.735 103.142 136.101 100.691 135.356 99.3537C134.131 97.1261 134.018 96.6433 134.018 93.9678C134.018 92.3703 134.427 87.9131 134.947 84.0511L135.876 77.0697L137.843 75.1387C140.184 72.8355 141.335 70.6816 144.604 62.6222C147.464 55.4915 149.468 51.6275 152.997 46.4666C156.711 41.0071 159.534 37.7384 160.536 37.7384C160.982 37.7384 162.84 38.2211 164.621 38.8531C168.113 40.0048 174.241 41.453 175.8 41.453C177.248 41.453 178.883 40.4875 181.26 38.1843C183.933 35.6581 184.009 34.9524 181.965 30.4215C180.517 27.1896 180.071 25.3711 179.329 18.9829C179.143 17.1256 178.846 15.2683 178.736 14.8224C178.513 14.0798 178.662 14.0062 180.779 13.7444C183.266 13.4846 186.089 11.8871 188.801 9.25042C190.436 7.68973 190.399 6.68739 188.689 5.53577C185.717 3.56795 181.892 3.60478 177.473 5.64822L175.469 6.57688L174.726 5.53772C171.122 0.409728 166.331 -1.07536 159.46 0.745132Z" fill="#19474E"/>
</svg>
