<svg width="1728" height="471" viewBox="0 0 1728 471" fill="none" xmlns="http://www.w3.org/2000/svg">
<path d="M122.327 185.326C-66.26 182.083 -116.189 216.512 -149.243 228.178C-150.882 228.756 -152 230.287 -152 232.026V466.932C-152 469.168 -150.168 470.969 -147.933 470.932L1771.07 438.617C1773.25 438.581 1775 436.801 1775 434.618V4.5773C1775 2.15515 1772.96 0.270518 1770.58 0.690039C1669.82 18.4093 1459.42 186.635 1364.99 217.801C1269.15 249.43 1089.22 -0.000484523 705.501 0C519.07 0.000235407 300.555 49.0549 124.882 184.489C124.16 185.045 123.238 185.342 122.327 185.326Z" fill="#1A6855"/>
</svg>
